<svg xmlns="http://www.w3.org/2000/svg" width="32" height="32" viewBox="0 0 24 24">
    <path fill="rgb(255, 255, 255)" d="M 19.4 13 c 0 -0.3 0.1 -0.6 0.1 -1 s 0 -0.7 -0.1 -1 l 2.1 -1.6 c 0.2 -0.1 0.2 -0.4 0.1 -0.6 l -2 -3.5 c -0.1 -0.2 -0.4 -0.3 -0.6 -0.2 l -2.5 1 c -0.5 -0.4 -1.1 -0.7 -1.7 -1 l -0.4 -2.6 C 14.5 2.2 14.3 2 14 2 h -4 c -0.3 0 -0.5 0.2 -0.5 0.4 l -0.4 2.6 c -0.6 0.3 -1.2 0.6 -1.7 1 l -2.5 -1 c -0.2 -0.1 -0.5 0 -0.6 0.2 l -2 3.5 c -0.1 0.2 -0.1 0.5 0.1 0.6 l 2.1 1.6 c 0 0.3 -0.1 0.7 -0.1 1 s 0 0.7 0.1 1 l -2.1 1.6 c -0.2 0.1 -0.2 0.4 -0.1 0.6 l 2 3.5 c 0.1 0.2 0.4 0.3 0.6 0.2 l 2.5 -1 c 0.5 0.4 1.1 0.7 1.7 1 l 0.4 2.6 c 0 0.2 0.2 0.4 0.5 0.4 h 4 c 0.3 0 0.5 -0.2 0.5 -0.4 l 0.4 -2.6 c 0.6 -0.3 1.2 -0.6 1.7 -1 l 2.5 1 c 0.2 0.1 0.5 0 0.6 -0.2 l 2 -3.5 c 0.1 -0.2 0.1 -0.5 -0.1 -0.6 l -2.1 -1.6 z M 12 15.5 c -1.9 0 -3.5 -1.6 -3.5 -3.5 s 1.6 -3.5 3.5 -3.5 s 3.5 1.6 3.5 3.5 s -1.6 3.5 -3.5 3.5 z"/>
</svg>